:FULLY-SPECIFIED
:FORCE-ALL-JOINTS-BE-3DOF
:DEGREES
2446
root 2.30184 14.8655 -23.3867 -151.584 82.9338 -150.536
lfemur -35.2147 20.18 -13.4744
ltibia 74.7027 -0 0
lfoot -26.6066 16.8268 -0.143263
ltoes -38.4272 0 0
rfemur -41.5866 -22.4446 10.0956
rtibia 58.5239 -0 0
rfoot 9.58414 -0.659185 0.799625
rtoes 2.78407 -0 0
lowerback 15.888 0.634781 -4.37141
upperback -1.01151 0.342631 2.96976
thorax -9.94689 0.511173 5.66818
lowerneck 3.11955 -13.4557 -15.3946
upperneck 1.95885 -18.7146 12.8964
head 2.74343 -9.43077 5.58736
lclavicle 0 0 0
lhumerus -40.7069 -42.551 109.677
lradius 105.752 -0 0
lwrist 65.7869 0 0
lhand 2.85645 41.88 0.0681679
lfingers 0 0 0
lthumb 28.2126 68.4912 -0.257507
rclavicle 0 0 0
rhumerus 13.1173 8.68794 -71.5813
rradius 109.826 -0 0
rwrist 14.2542 0 0
rhand -33.14 -45.4093 0.408228
rfingers 0 0 0
rthumb -6.34626 -74.9126 0.397149
2447
root 2.35954 14.8637 -23.4117 -151.826 82.8941 -150.56
lfemur -34.6695 20.4322 -13.4037
ltibia 74.8057 -0 0
lfoot -26.9843 17.0214 -0.132186
ltoes -38.3349 0 0
rfemur -41.7547 -22.521 9.61564
rtibia 57.2581 -0 0
rfoot 10.2895 -0.0785622 0.737584
rtoes 3.34661 -0 0
lowerback 15.8848 0.496359 -4.50237
upperback -1.01405 0.144396 3.06947
thorax -9.93617 0.426822 5.90193
lowerneck 3.11098 -13.4628 -15.4473
upperneck 2.11919 -18.7323 12.8373
head 2.79379 -9.43971 5.56893
lclavicle 0 0 0
lhumerus -41.6949 -42.974 110.224
lradius 106.277 -0 0
lwrist 67.2938 0 0
lhand 4.14889 41.907 0.0628558
lfingers 0 0 0
lthumb 29.4528 68.385 -0.237453
rclavicle 0 0 0
rhumerus 11.6084 6.90961 -72.0015
rradius 109.574 -0 0
rwrist 16.977 0 0
rhand -34.0106 -45.6495 0.376558
rfingers 0 0 0
rthumb -7.18642 -75.1547 0.366347
2448
root 2.41484 14.862 -23.4358 -152.058 82.856 -150.581
lfemur -34.1444 20.674 -13.3333
ltibia 74.9048 -0 0
lfoot -27.3471 17.2083 -0.120333
ltoes -38.2461 0 0
rfemur -41.9157 -22.5956 9.15441
rtibia 56.0417 -0 0
rfoot 10.9667 0.478653 0.671236
rtoes 3.88721 -0 0
lowerback 15.882 0.363328 -4.62822
upperback -1.01681 -0.0461038 3.16531
thorax -9.92619 0.34572 6.12654
lowerneck 3.10274 -13.4697 -15.4979
upperneck 2.27332 -18.7491 12.7805
head 2.84218 -9.44828 5.55121
lclavicle 0 0 0
lhumerus -42.656 -43.3739 110.762
lradius 106.782 -0 0
lwrist 68.742 0 0
lhand 5.39093 41.9328 0.0571791
lfingers 0 0 0
lthumb 30.6445 68.2834 -0.216021
rclavicle 0 0 0
rhumerus 10.1754 5.19091 -72.3595
rradius 109.332 -0 0
rwrist 19.5936 0 0
rhand -34.847 -45.8799 0.342689
rfingers 0 0 0
rthumb -7.99369 -75.387 0.333404
2449
root 2.46751 14.8604 -23.459 -152.278 82.8196 -150.6
lfemur -33.642 20.9043 -13.2638
ltibia 74.9994 -0 0
lfoot -27.6935 17.3867 -0.107911
ltoes -38.1614 0 0
rfemur -42.0689 -22.668 8.71401
rtibia 54.8803 -0 0
rfoot 11.6127 1.00991 0.601748
rtoes 4.40338 -0 0
lowerback 15.8797 0.236304 -4.74838
upperback -1.01974 -0.227989 3.25682
thorax -9.91696 0.268247 6.34098
lowerneck 3.09489 -13.4762 -15.5463
upperneck 2.4205 -18.7651 12.7262
head 2.88839 -9.45645 5.53429
lclavicle 0 0 0
lhumerus -43.5844 -43.7495 111.288
lradius 107.264 -0 0
lwrist 70.1247 0 0
lhand 6.57683 41.9573 0.0512384
lfingers 0 0 0
lthumb 31.7824 68.1869 -0.193589
rclavicle 0 0 0
rhumerus 8.82027 3.54211 -72.6603
rradius 109.101 -0 0
rwrist 22.0919 0 0
rhand -35.6456 -46.0993 0.307216
rfingers 0 0 0
rthumb -8.76434 -75.6083 0.2989
2450
root 2.51731 14.8589 -23.4812 -152.485 82.785 -150.616
lfemur -33.1648 21.122 -13.1958
ltibia 75.089 -0 0
lfoot -28.0218 17.5558 -0.095141
ltoes -38.0811 0 0
rfemur -42.2136 -22.7376 8.29657
rtibia 53.7794 -0 0
rfoot 12.2244 1.51268 0.530363
rtoes 4.89262 -0 0
lowerback 15.8777 0.115903 -4.86226
upperback -1.02279 -0.40038 3.34356
thorax -9.90848 0.194786 6.54422
lowerneck 3.08745 -13.4824 -15.5921
upperneck 2.56004 -18.7801 12.6747
head 2.9322 -9.46418 5.51824
lclavicle 0 0 0
lhumerus -44.4741 -44.0997 111.797
lradius 107.72 -0 0
lwrist 71.4353 0 0
lhand 7.70084 41.9804 0.0451408
lfingers 0 0 0
lthumb 32.8608 68.0958 -0.170561
rclavicle 0 0 0
rhumerus 7.54563 1.97323 -72.9089
rradius 108.881 -0 0
rwrist 24.4598 0 0
rhand -36.4023 -46.3068 0.270774
rfingers 0 0 0
rthumb -9.49465 -75.8176 0.263451
2451
root 2.564 14.8576 -23.5021 -152.679 82.7526 -150.631
lfemur -32.7154 21.3261 -13.13
ltibia 75.1733 -0 0
lfoot -28.3303 17.7146 -0.0822568
ltoes -38.0056 0 0
rfemur -42.3491 -22.8038 7.90422
rtibia 52.7448 -0 0
rfoot 12.7986 1.98449 0.458387
rtoes 5.35243 -0 0
lowerback 15.876 0.00274258 -4.96928
upperback -1.02589 -0.562395 3.4251
thorax -9.90075 0.125717 6.73523
lowerneck 3.08046 -13.4882 -15.6352
upperneck 2.6912 -18.794 12.6262
head 2.97337 -9.47144 5.50315
lclavicle 0 0 0
lhumerus -45.3191 -44.4236 112.285
lradius 108.15 -0 0
lwrist 72.6671 0 0
lhand 8.75724 42.002 0.0389978
lfingers 0 0 0
lthumb 33.8744 68.0106 -0.14736
rclavicle 0 0 0
rhumerus 6.35459 0.494043 -73.1106
rradius 108.675 -0 0
rwrist 26.6853 0 0
rhand -37.1134 -46.5014 0.234029
rfingers 0 0 0
rthumb -10.1809 -76.0139 0.227706
2452
root 2.60736 14.8563 -23.5217 -152.858 82.7224 -150.644
lfemur -32.2964 21.5156 -13.0671
ltibia 75.2517 -0 0
lfoot -28.6174 17.8623 -0.0694995
ltoes -37.9354 0 0
rfemur -42.4749 -22.8663 7.5391
rtibia 51.782 -0 0
rfoot 13.3325 2.42286 0.387167
rtoes 5.7803 -0 0
lowerback 15.8747 -0.102562 -5.06887
upperback -1.02899 -0.713155 3.50098
thorax -9.89376 0.0614209 6.91296
lowerneck 3.07396 -13.4937 -15.6753
upperneck 2.81328 -18.8069 12.5811
head 3.01168 -9.47819 5.4891
lclavicle 0 0 0
lhumerus -46.113 -44.7204 112.748
lradius 108.549 -0 0
lwrist 73.8132 0 0
lhand 9.74027 42.022 0.0329246
lfingers 0 0 0
lthumb 34.8175 67.9317 -0.124419
rclavicle 0 0 0
rhumerus 5.25085 -0.885905 -73.2706
rradius 108.484 -0 0
rwrist 28.7563 0 0
rhand -37.7749 -46.6821 0.19767
rfingers 0 0 0
rthumb -10.8194 -76.1961 0.192334
2453
root 2.64714 14.8552 -23.5398 -153.023 82.6946 -150.655
lfemur -31.9104 21.6895 -13.008
ltibia 75.3238 -0 0
lfoot -28.8813 17.9981 -0.0571158
ltoes -37.8708 0 0
rfemur -42.5902 -22.9244 7.20334
rtibia 50.8967 -0 0
rfoot 13.8228 2.82535 0.318077
rtoes 6.17375 -0 0
lowerback 15.8736 -0.199395 -5.16045
upperback -1.03201 -0.85178 3.57077
thorax -9.88751 0.00228014 7.07638
lowerneck 3.06799 -13.4987 -15.7121
upperneck 2.92555 -18.8187 12.5396
head 3.04691 -9.48438 5.47618
lclavicle 0 0 0
lhumerus -46.8497 -44.9891 113.181
lradius 108.917 -0 0
lwrist 74.8672 0 0
lhand 10.6442 42.0403 0.027038
lfingers 0 0 0
lthumb 35.6847 67.8594 -0.10218
rclavicle 0 0 0
rhumerus 4.23872 -2.15731 -73.3944
rradius 108.307 -0 0
rwrist 30.6606 0 0
rhand -38.3832 -46.8478 0.162397
rfingers 0 0 0
rthumb -11.4064 -76.3634 0.158018
2454
root 2.68312 14.8542 -23.5562 -153.171 82.6694 -150.665
lfemur -31.5601 21.8468 -12.9532
ltibia 75.3891 -0 0
lfoot -29.1205 18.1211 -0.0453544
ltoes -37.8123 0 0
rfemur -42.6944 -22.9775 6.89908
rtibia 50.0945 -0 0
rfoot 14.2668 3.18953 0.252501
rtoes 6.53027 -0 0
lowerback 15.8728 -0.287141 -5.24342
upperback -1.03489 -0.977391 3.63401
thorax -9.88199 -0.0513249 7.22446
lowerneck 3.06258 -13.5032 -15.7455
upperneck 3.0273 -18.8293 12.5019
head 3.07884 -9.48998 5.46447
lclavicle 0 0 0
lhumerus -47.5226 -45.2292 113.579
lradius 109.249 -0 0
lwrist 75.8223 0 0
lhand 11.4633 42.0568 0.0214552
lfingers 0 0 0
lthumb 36.4705 67.7943 -0.0810869
rclavicle 0 0 0
rhumerus 3.32304 -3.31111 -73.4871
rradius 108.148 -0 0
rwrist 32.3862 0 0
rhand -38.9342 -46.9976 0.128918
rfingers 0 0 0
rthumb -11.9382 -76.5146 0.125444
2455
root 2.71507 14.8533 -23.571 -153.303 82.647 -150.673
lfemur -31.2481 21.9864 -12.9036
ltibia 75.4472 -0 0
lfoot -29.3331 18.2304 -0.0344626
ltoes -37.7602 0 0
rfemur -42.7868 -23.0252 6.62845
rtibia 49.3811 -0 0
rfoot 14.6612 3.51301 0.191809
rtoes 6.84735 -0 0
lowerback 15.8721 -0.365184 -5.31722
upperback -1.03758 -1.08911 3.69027
thorax -9.8772 -0.0990134 7.35616
lowerneck 3.05777 -13.5073 -15.7752
upperneck 3.1178 -18.8387 12.4684
head 3.10724 -9.49496 5.45405
lclavicle 0 0 0
lhumerus -48.1255 -45.44 113.937
lradius 109.545 -0 0
lwrist 76.6717 0 0
lhand 12.1918 42.0714 0.0162922
lfingers 0 0 0
lthumb 37.1694 67.7366 -0.0615773
rclavicle 0 0 0
rhumerus 2.50918 -4.33844 -73.5542
rradius 108.006 -0 0
rwrist 33.9209 0 0
rhand -39.4243 -47.1306 0.0979314
rfingers 0 0 0
rthumb -12.4111 -76.6488 0.0952948
2456
root 2.74274 14.8526 -23.5838 -153.417 82.6276 -150.679
lfemur -30.977 22.1073 -12.8598
ltibia 75.4977 -0 0
lfoot -29.5176 18.3252 -0.0246822
ltoes -37.715 0 0
rfemur -42.8669 -23.067 6.3936
rtibia 48.7619 -0 0
rfoot 15.0032 3.79337 0.13734
rtoes 7.12252 -0 0
lowerback 15.8716 -0.432908 -5.38127
upperback -1.03999 -1.18605 3.7391
thorax -9.87314 -0.140405 7.47044
lowerneck 3.0536 -13.5108 -15.801
upperneck 3.19635 -18.8468 12.4394
head 3.13188 -9.49928 5.44501
lclavicle 0 0 0
lhumerus -48.652 -45.6207 114.252
lradius 109.802 -0 0
lwrist 77.4088 0 0
lhand 12.824 42.084 0.0116617
lfingers 0 0 0
lthumb 37.7758 67.6867 -0.0440782
rclavicle 0 0 0
rhumerus 1.80292 -5.23063 -73.6007
rradius 107.882 -0 0
rwrist 35.2527 0 0
rhand -39.8495 -47.2458 0.0701213
rfingers 0 0 0
rthumb -12.8214 -76.7651 0.0682348
